<svg width="24" height="24" viewBox="0 0 24 24" fill="none" xmlns="http://www.w3.org/2000/svg">
<g clip-path="url(#clip0_301_1027)">
<path d="M18.0487 6.375H5.95124L3.74999 22.605C3.67874 23.1337 3.97124 23.625 4.36124 23.625H19.6275C20.0025 23.625 20.31 23.1337 20.2387 22.605L18.0487 6.375Z" stroke="#736446" stroke-miterlimit="10" stroke-linecap="round"/>
<path d="M8.25 11.5V5.125C8.25 4.13044 8.64509 3.17661 9.34835 2.47335C10.0516 1.77009 11.0054 1.375 12 1.375V1.375C12.9946 1.375 13.9484 1.77009 14.6517 2.47335C15.3549 3.17661 15.75 4.13044 15.75 5.125V11.5" stroke="#736446" stroke-miterlimit="10" stroke-linecap="round"/>
<path d="M8.5 11.5C8.5 11.6381 8.38807 11.75 8.25 11.75C8.11193 11.75 8 11.6381 8 11.5C8 11.3619 8.11193 11.25 8.25 11.25C8.38807 11.25 8.5 11.3619 8.5 11.5Z" fill="#736446" stroke="#736446"/>
<path d="M16 11.5C16 11.6381 15.8881 11.75 15.75 11.75C15.6119 11.75 15.5 11.6381 15.5 11.5C15.5 11.3619 15.6119 11.25 15.75 11.25C15.8881 11.25 16 11.3619 16 11.5Z" fill="#736446" stroke="#736446"/>
</g>
<defs>
<clipPath id="clip0_301_1027">
<rect width="24" height="24" fill="white"/>
</clipPath>
</defs>
</svg>
