<svg width="123" height="51" viewBox="0 0 123 51" fill="none" xmlns="http://www.w3.org/2000/svg">
<path d="M6.878 51C10.4933 51 10.7455 48.2716 11.0538 45.7103L13.2398 28.1707C13.408 26.8622 13.5201 25.86 14.1647 25.1361H11.5022C11.9787 25.86 11.8666 26.8622 11.6984 28.1707L9.42834 46.5177C9.28821 47.7148 9.09203 49.7472 6.878 49.7472C6.878 49.7472 6.14934 49.7472 5.39264 49.2739L5.14041 49.3853L4.88818 50.6659C5.4487 50.833 5.98118 51 6.878 51Z" fill="#AF7D64"/>
<path d="M28.3286 44.9029L28.6649 43.0098L28.4687 42.8984C27.768 43.5109 26.7591 43.5109 25.4419 43.5109H18.6877L19.7247 35.1866H24.7973C26.1145 35.1866 27.1235 35.1866 27.768 35.7434L28.1044 33.2099C27.2916 33.7667 26.2827 33.7667 24.9655 33.7667H19.8928L20.7897 26.5281H27.1235C28.4407 26.5281 29.4496 26.5281 29.9821 27.1406L30.2343 27.0293L30.3464 25.1361H18.8559C19.3323 25.86 19.2202 26.8622 19.0521 28.1707L17.3425 41.8683C17.2024 43.1768 17.0623 44.1791 16.4177 44.9029H28.3286Z" fill="#AF7D64"/>
<path d="M34.3757 28.1707L37.5426 44.9029H39.1401L46.5389 27.4747H46.8191L49.93 44.9029H51.5274L58.8421 28.1707C59.4026 26.8622 59.8791 25.86 60.6358 25.1361H58.1135C58.3377 25.86 57.8893 26.8622 57.3007 28.1707L51.2192 42.091H50.9389L48.4726 28.1707C48.2484 26.8622 47.9962 25.86 48.3605 25.1361H45.558C45.7542 25.86 45.2777 26.8622 44.7172 28.1707L38.8038 42.1189H38.5235L35.9172 28.1707C35.6929 26.8622 35.4407 25.86 35.8051 25.1361H33.2827C33.8993 25.86 34.1515 26.8622 34.3757 28.1707Z" fill="#AF7D64"/>
<path d="M72.6112 44.9029L72.9476 43.0098L72.7514 42.8984C72.0507 43.5109 71.0418 43.5109 69.7246 43.5109H62.9704L64.0074 35.1866H69.08C70.3972 35.1866 71.4061 35.1866 72.0507 35.7434L72.387 33.2099C71.5743 33.7667 70.5654 33.7667 69.2482 33.7667H64.1755L65.0723 26.5281H71.4061C72.7233 26.5281 73.7323 26.5281 74.2648 27.1406L74.517 27.0293L74.6291 25.1361H63.1386C63.615 25.86 63.5029 26.8622 63.3348 28.1707L61.6252 41.8683C61.4851 43.1768 61.3449 44.1791 60.7004 44.9029H72.6112Z" fill="#AF7D64"/>
<path d="M88.9438 44.9029L89.3082 42.8706L89.112 42.7592C88.4114 43.3717 87.4024 43.3717 86.0852 43.3717H79.7795L81.6572 28.1707C81.8253 26.8622 81.9374 25.86 82.582 25.1361H79.9196C80.396 25.86 80.2839 26.8622 80.1158 28.1707L78.4062 41.8683C78.2661 43.1768 78.1259 44.1791 77.4814 44.9029H88.9438Z" fill="#AF7D64"/>
<path d="M91.7405 44.9029H94.4029C93.9265 44.1791 94.0666 43.1768 94.2067 41.8683L94.9634 35.8826L96.8972 35.7712L103.399 44.9029H105.865L106.006 44.6245C104.997 44.0399 103.96 43.1768 103.035 41.8683L98.7189 35.632C101.83 35.2979 104.744 34.3235 105.109 30.3701C105.501 26.2776 102.53 25.1361 99.0272 25.1361H94.1787C94.6552 25.86 94.5431 26.8622 94.3749 28.1707L92.6653 41.8683C92.5252 43.1768 92.3851 44.1791 91.7405 44.9029ZM95.1316 34.5184L96.1125 26.5281H98.859C101.886 26.5281 103.876 27.3912 103.567 30.3701C103.231 33.4883 100.877 34.2678 98.2144 34.3792L95.1316 34.5184Z" fill="#AF7D64"/>
<path d="M109.547 28.1429L113.191 37.2746L112.602 41.8683C112.462 43.1768 112.322 44.1791 111.677 44.9029H114.34C113.863 44.1791 114.004 43.1768 114.144 41.8683L114.732 37.2189L120.59 28.1429C121.178 27.252 122.271 25.5816 123 25.1361H120.421C120.337 25.5816 120.197 26.1941 119.665 27.0014L114.312 35.465H114.032L110.753 27.0014C110.444 26.1941 110.416 25.5816 110.444 25.1361H107.866C108.483 25.5816 109.183 27.252 109.547 28.1429Z" fill="#AF7D64"/>
<path d="M0 0.278406C0.700641 1.00226 1.00892 2.00452 1.28918 3.31303L5.10067 20.0452H6.6701L14.6854 3.31303C15.302 2.00452 15.8065 1.00226 16.6753 0.278406H14.0128C14.265 1.00226 13.7606 2.00452 13.144 3.31303L6.36182 17.5396H6.08156L2.83059 3.31303C2.55033 2.00452 2.24205 1.00226 2.66244 0.278406H0Z" fill="#AF7D64"/>
<path d="M18.909 20.0452C18.4325 19.3214 18.5727 18.3191 18.7128 17.0106L20.4224 3.31303C20.5905 2.00452 20.7026 1.00226 21.3472 0.278406H18.6848C19.1612 1.00226 19.0491 2.00452 18.881 3.31303L17.1714 17.0106C17.0313 18.3191 16.8911 19.3214 16.2465 20.0452H18.909Z" fill="#AF7D64"/>
<path d="M23.4752 20.0452H26.1376C25.6612 19.3214 25.8013 18.3191 25.9414 17.0106L27.7351 2.61701H28.0153L36.5632 20.0452H39.0855C38.609 19.3214 38.7492 18.3191 38.8893 17.0106L40.5989 3.31303C40.767 2.00452 40.8791 1.00226 41.5237 0.278406H38.8613C39.3377 1.00226 39.2256 2.00452 39.0574 3.31303L37.3198 17.6788H37.0396L28.4638 0.278406H25.9134C26.3899 1.00226 26.2778 2.00452 26.1096 3.31303L24.4 17.0106C24.2599 18.3191 24.1198 19.3214 23.4752 20.0452Z" fill="#AF7D64"/>
<path d="M43.7555 2.22725C44.5402 1.67043 45.5491 1.67043 46.8663 1.67043H50.2014C50.2014 2.11588 50.1453 2.61701 50.0612 3.17383L48.3517 17.0106C48.2115 18.3191 48.0714 19.3214 47.4268 20.0452H50.0892C49.6128 19.3214 49.7529 18.3191 49.8931 17.0106L51.6026 3.17383C51.6867 2.61701 51.7428 2.11588 51.8549 1.67043H55.1899C56.5071 1.67043 57.516 1.67043 58.1887 2.22725L58.4129 0.278406H43.9797L43.7555 2.22725Z" fill="#AF7D64"/>
<path d="M58.1359 20.0452C57.9117 19.3214 58.4161 18.3191 59.0327 17.0106L61.0786 12.6396H68.3933L69.3461 17.0106C69.6824 18.3191 69.9347 19.3214 69.5143 20.0452H72.1767C71.4761 19.3214 71.1958 18.3191 70.8876 17.0106L67.8608 3.31303C67.5805 2.00452 67.3003 1.00226 67.6926 0.278406H64.806C65.0582 1.00226 64.5257 2.00452 63.9092 3.31303L57.4913 17.0106C56.9028 18.3191 56.3703 19.3214 55.4735 20.0452H58.1359ZM61.7232 11.2476L65.8429 2.44997H66.1232L68.085 11.2476H61.7232Z" fill="#AF7D64"/>
<path d="M83.0743 20.3236C85.6807 20.3236 88.0349 19.6833 89.7724 18.6253L90.3049 14.3657C90.4731 13.0572 90.5852 12.055 91.2298 11.3311H88.5673C89.0438 12.055 88.9317 13.0572 88.7635 14.3657L88.3431 17.7345C86.9979 18.4861 85.2323 18.9316 83.2985 18.9316C77.7214 18.9316 76.0399 15.1174 76.6284 10.2175C77.245 5.34539 79.9074 1.39203 85.2323 1.39203C87.7546 1.39203 89.6323 2.31077 90.7253 3.81416H91.0056L92.2948 1.72612C90.6693 0.612493 88.3431 0 85.7648 0C78.6463 0 75.4794 4.53801 74.8068 10.1618C74.1061 15.7578 76.0959 20.3236 83.0743 20.3236Z" fill="#AF7D64"/>
<path d="M105.943 20.0452L106.279 18.1521L106.083 18.0407C105.382 18.6532 104.373 18.6532 103.056 18.6532H96.302L97.3389 10.3289H102.412C103.729 10.3289 104.738 10.3289 105.382 10.8857L105.719 8.35217C104.906 8.90899 103.897 8.90899 102.58 8.90899H97.5071L98.4039 1.67043H104.738C106.055 1.67043 107.064 1.67043 107.596 2.28293L107.849 2.17157L107.961 0.278406H96.4701C96.9466 1.00226 96.8345 2.00452 96.6663 3.31303L94.9567 17.0106C94.8166 18.3191 94.6765 19.3214 94.0319 20.0452H105.943Z" fill="#AF7D64"/>
</svg>
